<?xml version="1.0" encoding="UTF-8" standalone="no"?>
<!DOCTYPE svg PUBLIC "-//W3C//DTD SVG 1.1//EN" "http://www.w3.org/Graphics/SVG/1.1/DTD/svg11.dtd">
<svg version="1.1" xmlns="http://www.w3.org/2000/svg" xmlns:xlink="http://www.w3.org/1999/xlink" preserveAspectRatio="xMidYMid meet" viewBox="0 0 100 100" width="50" height="50"><defs><path d="M64.27 54.32L68.59 50L64.27 45.68L66.44 43.52L70.76 47.85L72.92 50L70.76 52.15L66.44 56.48L64.27 54.32ZM33.56 43.52L29.24 47.85L27.08 50L29.24 52.15L33.56 56.48L35.73 54.32L31.41 50L35.73 45.68L33.56 43.52ZM83.61 31.67L83.61 68.33L50 86.67L16.39 68.33L16.39 31.67L50 13.33L83.61 31.67ZM80.56 33.48L50 16.82L19.44 33.48L19.44 66.52L50 83.18L80.56 66.52L80.56 33.48ZM45.25 62.91L57.47 38.47L54.75 37.09L42.53 61.53L45.25 62.91Z" id="bYq7eh1L"></path></defs><g><g><g><use xlink:href="#bYq7eh1L" opacity="1" fill="#3bcd77" fill-opacity="1"></use><g><use xlink:href="#bYq7eh1L" opacity="1" fill-opacity="0" stroke="#000000" stroke-width="1" stroke-opacity="0"></use></g></g></g></g></svg>