<?xml version="1.0" encoding="UTF-8" standalone="no"?>
<!DOCTYPE svg PUBLIC "-//W3C//DTD SVG 1.1//EN" "http://www.w3.org/Graphics/SVG/1.1/DTD/svg11.dtd">
<svg version="1.1" xmlns="http://www.w3.org/2000/svg" xmlns:xlink="http://www.w3.org/1999/xlink" preserveAspectRatio="xMidYMid meet" viewBox="0 0 166 51" width="166" height="51"><defs><path d="M66.87 16.59L64.98 16.59L62.13 29.83L56.67 15.52L51.18 29.83L48.37 16.59L46.44 16.59L50.7 36.29L56.67 20.42L62.65 36.29L66.87 16.59ZM78.82 24.44C77.6 23.29 76.16 22.7 74.51 22.7C72.83 22.7 71.37 23.31 70.17 24.52C68.97 25.72 68.35 27.18 68.35 28.86C68.35 30.56 68.97 32.01 70.17 33.21C70.73 33.76 71.37 34.2 72.12 34.53C72.87 34.83 73.75 35 74.8 35C75.84 35 76.87 34.68 77.88 34.03C78.9 33.38 79.64 32.48 80.14 31.34C79.93 31.34 78.21 31.34 78 31.34C77.6 31.9 77.08 32.34 76.47 32.65C75.84 32.97 75.2 33.13 74.51 33.13C73.52 33.13 72.6 32.8 71.78 32.13C70.99 31.48 70.5 30.66 70.31 29.64C71 29.64 74.45 29.64 80.68 29.64C80.68 29.11 80.68 28.78 80.68 28.65C80.68 27.02 80.06 25.62 78.82 24.44ZM70.9 26.66C71.78 25.26 72.99 24.57 74.51 24.57C75.53 24.57 76.41 24.9 77.18 25.55C77.98 26.2 78.47 27.02 78.71 28.04C77.03 28.04 71.18 28.04 70.34 28.04C70.44 27.54 70.63 27.08 70.9 26.66ZM85.63 32.8C85.75 32.93 85.87 33.07 85.98 33.21C87.09 34.45 88.47 35.08 90.09 35.08C91.72 35.08 93.08 34.45 94.19 33.21C95.28 32 95.82 30.56 95.82 28.91C95.82 27.27 95.28 25.84 94.19 24.63C93.08 23.38 91.72 22.76 90.09 22.76C88.47 22.76 87.09 23.38 85.98 24.63C85.87 24.76 85.75 24.9 85.63 25.03C85.63 24.35 85.63 20.9 85.63 14.71C85.51 14.71 84.88 14.71 83.76 14.71L83.76 34.81L85.63 34.81C85.63 33.56 85.63 32.89 85.63 32.8ZM89.79 33.21C88.62 33.21 87.63 32.78 86.82 31.92C86.04 31.06 85.63 30.06 85.63 28.91C85.63 27.77 86.04 26.77 86.82 25.91C87.63 25.05 88.62 24.63 89.79 24.63C90.98 24.63 91.95 25.05 92.75 25.91C93.54 26.77 93.94 27.77 93.94 28.91C93.94 30.06 93.54 31.06 92.75 31.92C91.95 32.78 90.98 33.21 89.79 33.21ZM117.73 34.81L113.5 15.38L107.53 30.98L101.56 15.38L97.29 34.81L99.23 34.81L102.04 21.84L107.53 35.88L113.01 21.84L115.84 34.81L117.73 34.81ZM125.24 33.21C124.07 33.21 123.07 32.78 122.29 31.92C121.48 31.06 121.08 30.06 121.08 28.91C121.08 27.77 121.48 26.77 122.29 25.91C123.07 25.05 124.07 24.63 125.24 24.63C126.42 24.63 127.4 25.05 128.2 25.91C129.01 26.77 129.39 27.77 129.39 28.91C129.39 30.06 129.01 31.06 128.2 31.92C127.4 32.78 126.42 33.21 125.24 33.21ZM131.26 23.02C130.14 23.02 129.52 23.02 129.39 23.02C129.39 24.23 129.39 24.9 129.39 25.03C129.3 24.9 129.18 24.76 129.06 24.63C127.96 23.38 126.58 22.76 124.95 22.76C123.32 22.76 121.95 23.38 120.83 24.63C119.76 25.84 119.21 27.27 119.21 28.91C119.21 30.56 119.76 32 120.83 33.21C121.95 34.45 123.32 35.08 124.95 35.08C126.58 35.08 127.96 34.45 129.06 33.21C129.18 33.07 129.3 32.93 129.39 32.8C129.39 32.93 129.39 33.61 129.39 34.81C129.52 34.81 130.14 34.81 131.26 34.81L131.26 23.02ZM137.16 29.15L141.81 34.81L144.3 34.81L139.13 28.72L143.97 23L141.49 23L137.16 28.3L137.16 14.71L135.28 14.71L135.28 34.81L137.16 34.81L137.16 29.15ZM156.22 24.44C155.02 23.29 153.58 22.7 151.94 22.7C150.23 22.7 148.78 23.31 147.57 24.52C146.37 25.72 145.77 27.18 145.77 28.86C145.77 30.56 146.37 32.01 147.57 33.21C148.15 33.76 148.8 34.2 149.53 34.53C150.27 34.83 151.17 35 152.21 35C153.25 35 154.29 34.68 155.29 34.03C156.3 33.38 157.07 32.48 157.56 31.34C157.35 31.34 155.63 31.34 155.42 31.34C155 31.9 154.48 32.34 153.87 32.65C153.25 32.97 152.61 33.13 151.94 33.13C150.92 33.13 150.02 32.8 149.2 32.13C148.39 31.48 147.9 30.66 147.72 29.64C148.41 29.64 151.88 29.64 158.1 29.64C158.1 29.11 158.1 28.78 158.1 28.65C158.1 27.02 157.47 25.62 156.22 24.44ZM148.32 26.66C149.2 25.26 150.4 24.57 151.94 24.57C152.93 24.57 153.83 24.9 154.59 25.55C155.4 26.2 155.9 27.02 156.11 28.04C154.44 28.04 148.58 28.04 147.74 28.04C147.86 27.54 148.05 27.08 148.32 26.66Z" id="ai50HaUGg"></path><path d="M66.87 16.59L64.98 16.59L62.13 29.83L56.67 15.52L51.18 29.83L48.37 16.59L46.44 16.59L50.7 36.29L56.67 20.42L62.65 36.29L66.87 16.59ZM78.82 24.44C77.6 23.29 76.16 22.7 74.51 22.7C72.83 22.7 71.37 23.31 70.17 24.52C68.97 25.72 68.35 27.18 68.35 28.86C68.35 30.56 68.97 32.01 70.17 33.21C70.73 33.76 71.37 34.2 72.12 34.53C72.87 34.83 73.75 35 74.8 35C75.84 35 76.87 34.68 77.88 34.03C78.9 33.38 79.64 32.48 80.14 31.34C79.93 31.34 78.21 31.34 78 31.34C77.6 31.9 77.08 32.34 76.47 32.65C75.84 32.97 75.2 33.13 74.51 33.13C73.52 33.13 72.6 32.8 71.78 32.13C70.99 31.48 70.5 30.66 70.31 29.64C71 29.64 74.45 29.64 80.68 29.64C80.68 29.11 80.68 28.78 80.68 28.65C80.68 27.02 80.06 25.62 78.82 24.44ZM70.9 26.66C71.78 25.26 72.99 24.57 74.51 24.57C75.53 24.57 76.41 24.9 77.18 25.55C77.98 26.2 78.47 27.02 78.71 28.04C77.03 28.04 71.18 28.04 70.34 28.04C70.44 27.54 70.63 27.08 70.9 26.66ZM85.63 32.8C85.75 32.93 85.87 33.07 85.98 33.21C87.09 34.45 88.47 35.08 90.09 35.08C91.72 35.08 93.08 34.45 94.19 33.21C95.28 32 95.82 30.56 95.82 28.91C95.82 27.27 95.28 25.84 94.19 24.63C93.08 23.38 91.72 22.76 90.09 22.76C88.47 22.76 87.09 23.38 85.98 24.63C85.87 24.76 85.75 24.9 85.63 25.03C85.63 24.35 85.63 20.9 85.63 14.71C85.51 14.71 84.88 14.71 83.76 14.71L83.76 34.81L85.63 34.81C85.63 33.56 85.63 32.89 85.63 32.8ZM89.79 33.21C88.62 33.21 87.63 32.78 86.82 31.92C86.04 31.06 85.63 30.06 85.63 28.91C85.63 27.77 86.04 26.77 86.82 25.91C87.63 25.05 88.62 24.63 89.79 24.63C90.98 24.63 91.95 25.05 92.75 25.91C93.54 26.77 93.94 27.77 93.94 28.91C93.94 30.06 93.54 31.06 92.75 31.92C91.95 32.78 90.98 33.21 89.79 33.21ZM117.73 34.81L113.5 15.38L107.53 30.98L101.56 15.38L97.29 34.81L99.23 34.81L102.04 21.84L107.53 35.88L113.01 21.84L115.84 34.81L117.73 34.81ZM125.24 33.21C124.07 33.21 123.07 32.78 122.29 31.92C121.48 31.06 121.08 30.06 121.08 28.91C121.08 27.77 121.48 26.77 122.29 25.91C123.07 25.05 124.07 24.63 125.24 24.63C126.42 24.63 127.4 25.05 128.2 25.91C129.01 26.77 129.39 27.77 129.39 28.91C129.39 30.06 129.01 31.06 128.2 31.92C127.4 32.78 126.42 33.21 125.24 33.21ZM131.26 23.02C130.14 23.02 129.52 23.02 129.39 23.02C129.39 24.23 129.39 24.9 129.39 25.03C129.3 24.9 129.18 24.76 129.06 24.63C127.96 23.38 126.58 22.76 124.95 22.76C123.32 22.76 121.95 23.38 120.83 24.63C119.76 25.84 119.21 27.27 119.21 28.91C119.21 30.56 119.76 32 120.83 33.21C121.95 34.45 123.32 35.08 124.95 35.08C126.58 35.08 127.96 34.45 129.06 33.21C129.18 33.07 129.3 32.93 129.39 32.8C129.39 32.93 129.39 33.61 129.39 34.81C129.52 34.81 130.14 34.81 131.26 34.81L131.26 23.02ZM137.16 29.15L141.81 34.81L144.3 34.81L139.13 28.72L143.97 23L141.49 23L137.16 28.3L137.16 14.71L135.28 14.71L135.28 34.81L137.16 34.81L137.16 29.15ZM156.22 24.44C155.02 23.29 153.58 22.7 151.94 22.7C150.23 22.7 148.78 23.31 147.57 24.52C146.37 25.72 145.77 27.18 145.77 28.86C145.77 30.56 146.37 32.01 147.57 33.21C148.15 33.76 148.8 34.2 149.53 34.53C150.27 34.83 151.17 35 152.21 35C153.25 35 154.29 34.68 155.29 34.03C156.3 33.38 157.07 32.48 157.56 31.34C157.35 31.34 155.63 31.34 155.42 31.34C155 31.9 154.48 32.34 153.87 32.65C153.25 32.97 152.61 33.13 151.94 33.13C150.92 33.13 150.02 32.8 149.2 32.13C148.39 31.48 147.9 30.66 147.72 29.64C148.41 29.64 151.88 29.64 158.1 29.64C158.1 29.11 158.1 28.78 158.1 28.65C158.1 27.02 157.47 25.62 156.22 24.44ZM148.32 26.66C149.2 25.26 150.4 24.57 151.94 24.57C152.93 24.57 153.83 24.9 154.59 25.55C155.4 26.2 155.9 27.02 156.11 28.04C154.44 28.04 148.58 28.04 147.74 28.04C147.86 27.54 148.05 27.08 148.32 26.66Z" id="b1N79sGwfy"></path><path d="M30.93 25.5L29.02 23.59L29.98 22.64L31.89 24.55L32.84 25.5L31.89 26.45L29.98 28.36L29.02 27.41L30.93 25.5ZM13.57 24.55L12.62 25.5L13.57 26.45L15.48 28.36L16.44 27.41L14.53 25.5L16.44 23.59L15.48 22.64L13.57 24.55ZM37.56 33.59L22.73 41.68L7.9 33.59L7.9 17.41L22.73 9.32L37.56 17.41L37.56 33.59ZM22.73 10.86L9.25 18.21L9.25 32.79L22.73 40.14L36.21 32.79L36.21 18.21L22.73 10.86ZM26.03 20.41L24.83 19.8L19.44 30.59L20.63 31.2L26.03 20.41Z" id="dEfUp9h0U"></path><path d="M30.93 25.5L29.02 23.59L29.98 22.64L31.89 24.55L32.84 25.5L31.89 26.45L29.98 28.36L29.02 27.41L30.93 25.5ZM13.57 24.55L12.62 25.5L13.57 26.45L15.48 28.36L16.44 27.41L14.53 25.5L16.44 23.59L15.48 22.64L13.57 24.55ZM37.56 33.59L22.73 41.68L7.9 33.59L7.9 17.41L22.73 9.32L37.56 17.41L37.56 33.59ZM22.73 10.86L9.25 18.21L9.25 32.79L22.73 40.14L36.21 32.79L36.21 18.21L22.73 10.86ZM26.03 20.41L24.83 19.8L19.44 30.59L20.63 31.2L26.03 20.41Z" id="enr7hx8MB"></path></defs><g><g><g><use xlink:href="#ai50HaUGg" opacity="1" fill="#000000" fill-opacity="1"></use><g><use xlink:href="#ai50HaUGg" opacity="1" fill-opacity="0" stroke="#000000" stroke-width="1" stroke-opacity="0"></use></g></g><g><use xlink:href="#b1N79sGwfy" opacity="1" fill="#000000" fill-opacity="0"></use><g><use xlink:href="#b1N79sGwfy" opacity="1" fill-opacity="0" stroke="#000000" stroke-width="1" stroke-opacity="0"></use></g></g><g><use xlink:href="#dEfUp9h0U" opacity="1" fill="#3bcd77" fill-opacity="1"></use><g><use xlink:href="#dEfUp9h0U" opacity="1" fill-opacity="0" stroke="#000000" stroke-width="1" stroke-opacity="0"></use></g></g><g><use xlink:href="#enr7hx8MB" opacity="1" fill="#000000" fill-opacity="0"></use><g><use xlink:href="#enr7hx8MB" opacity="1" fill-opacity="0" stroke="#000000" stroke-width="1" stroke-opacity="0"></use></g></g></g></g></svg>