<?xml version="1.0" encoding="UTF-8" standalone="no"?>
<!DOCTYPE svg PUBLIC "-//W3C//DTD SVG 1.1//EN" "http://www.w3.org/Graphics/SVG/1.1/DTD/svg11.dtd">
<svg version="1.1" xmlns="http://www.w3.org/2000/svg" xmlns:xlink="http://www.w3.org/1999/xlink" preserveAspectRatio="xMidYMid meet" viewBox="0 0 166 51" width="166" height="51"><defs><path d="M166 0C166 0 166 0 166 0C166 30.6 166 47.6 166 51C166 51 166 51 166 51C66.4 51 11.07 51 0 51C0 51 0 51 0 51C0 20.4 0 3.4 0 0C0 0 0 0 0 0C99.6 0 154.93 0 166 0Z" id="b1NKLhmNqr"></path><path d="M63.91 36.19L68.04 16.97L66.19 16.97L63.41 29.9L58.09 15.93L52.73 29.9L49.98 16.97L48.1 16.97L52.26 36.19L58.09 20.71L63.91 36.19ZM81.5 28.74C81.5 27.15 80.91 25.79 79.69 24.63C78.5 23.51 77.1 22.93 75.49 22.93C73.85 22.93 72.43 23.53 71.25 24.7C70.07 25.88 69.48 27.3 69.48 28.94C69.48 30.6 70.07 32.02 71.25 33.18C71.79 33.72 72.43 34.15 73.16 34.47C73.88 34.77 74.74 34.94 75.77 34.94C76.78 34.94 77.79 34.62 78.78 33.98C79.77 33.35 80.49 32.47 80.98 31.37C80.77 31.37 79.1 31.37 78.89 31.37C78.5 31.91 77.99 32.34 77.39 32.64C76.78 32.96 76.16 33.11 75.49 33.11C74.52 33.11 73.62 32.79 72.82 32.14C72.05 31.5 71.57 30.7 71.38 29.71C72.06 29.71 75.43 29.71 81.5 29.71C81.5 29.19 81.5 28.87 81.5 28.74ZM71.42 28.14C71.51 27.65 71.7 27.21 71.96 26.8C72.82 25.43 74 24.76 75.49 24.76C76.48 24.76 77.34 25.08 78.09 25.71C78.87 26.35 79.36 27.15 79.58 28.14C77.95 28.14 72.24 28.14 71.42 28.14ZM86.34 34.75C86.34 33.57 86.34 32.92 86.34 32.79C86.45 32.92 86.56 33.05 86.68 33.18C87.76 34.4 89.1 35.01 90.69 35.01C92.28 35.01 93.6 34.4 94.69 33.18C95.75 32.01 96.27 30.6 96.27 29C96.27 27.39 95.75 25.99 94.69 24.82C93.6 23.6 92.28 22.99 90.69 22.99C89.1 22.99 87.76 23.6 86.68 24.82C86.56 24.95 86.45 25.08 86.34 25.21C86.34 24.54 86.34 21.18 86.34 15.14L84.51 15.14L84.51 34.75L86.34 34.75ZM93.29 31.93C92.5 32.77 91.55 33.18 90.39 33.18C89.25 33.18 88.28 32.77 87.5 31.93C86.73 31.09 86.34 30.12 86.34 29C86.34 27.88 86.73 26.91 87.5 26.07C88.28 25.23 89.25 24.82 90.39 24.82C91.55 24.82 92.5 25.23 93.29 26.07C94.05 26.91 94.44 27.88 94.44 29C94.44 30.12 94.05 31.09 93.29 31.93ZM115.81 34.75L117.65 34.75L113.53 15.8L107.7 31.02L101.88 15.8L97.71 34.75L99.6 34.75L102.34 22.09L107.7 35.8L113.04 22.09L115.81 34.75ZM127.87 31.93C127.08 32.77 126.13 33.18 124.97 33.18C123.83 33.18 122.86 32.77 122.1 31.93C121.31 31.09 120.92 30.12 120.92 29C120.92 27.88 121.31 26.91 122.1 26.07C122.86 25.23 123.83 24.82 124.97 24.82C126.13 24.82 127.08 25.23 127.87 26.07C128.65 26.91 129.03 27.88 129.03 29C129.03 30.12 128.65 31.09 127.87 31.93ZM130.86 34.75L130.86 23.25L129.03 23.25C129.03 24.42 129.03 25.08 129.03 25.21C128.93 25.08 128.82 24.95 128.71 24.82C127.63 23.6 126.28 22.99 124.69 22.99C123.11 22.99 121.76 23.6 120.68 24.82C119.63 25.99 119.09 27.39 119.09 29C119.09 30.6 119.63 32.01 120.68 33.18C121.76 34.4 123.11 35.01 124.69 35.01C126.28 35.01 127.63 34.4 128.71 33.18C128.82 33.05 128.93 32.92 129.03 32.79C129.03 32.92 129.03 33.57 129.03 34.75L130.86 34.75ZM136.61 34.75L136.61 29.22L141.14 34.75L143.57 34.75L138.53 28.81L143.25 23.23L140.83 23.23L136.61 28.4L136.61 15.14L134.78 15.14L134.78 34.75L136.61 34.75ZM157.04 28.74C157.04 27.15 156.42 25.79 155.21 24.63C154.03 23.51 152.63 22.93 151.02 22.93C149.36 22.93 147.94 23.53 146.77 24.7C145.59 25.88 145.01 27.3 145.01 28.94C145.01 30.6 145.59 32.02 146.77 33.18C147.33 33.72 147.96 34.15 148.67 34.47C149.4 34.77 150.28 34.94 151.28 34.94C152.31 34.94 153.32 34.62 154.29 33.98C155.28 33.35 156.03 32.47 156.51 31.37C156.3 31.37 154.63 31.37 154.42 31.37C154.01 31.91 153.51 32.34 152.91 32.64C152.31 32.96 151.68 33.11 151.02 33.11C150.03 33.11 149.16 32.79 148.35 32.14C147.57 31.5 147.08 30.7 146.91 29.71C147.59 29.71 150.96 29.71 157.04 29.71C157.04 29.19 157.04 28.87 157.04 28.74ZM146.93 28.14C147.05 27.65 147.23 27.21 147.49 26.8C148.35 25.43 149.53 24.76 151.02 24.76C151.99 24.76 152.87 25.08 153.62 25.71C154.4 26.35 154.89 27.15 155.09 28.14C153.46 28.14 147.75 28.14 146.93 28.14Z" id="b1h0XcbBRp"></path><path d="M31.11 27.53L32.97 25.67L31.11 23.8L32.05 22.88L33.91 24.74L34.83 25.67L33.91 26.59L32.05 28.45L31.11 27.53ZM17.89 22.88L16.03 24.74L15.11 25.67L16.03 26.59L17.89 28.45L18.83 27.53L16.97 25.67L18.83 23.8L17.89 22.88ZM39.44 17.77L39.44 33.56L24.97 41.45L10.5 33.56L10.5 17.77L24.97 9.88L39.44 17.77ZM38.12 18.56L24.97 11.38L11.82 18.56L11.82 32.77L24.97 39.95L38.12 32.77L38.12 18.56ZM22.92 31.22L28.19 20.7L27.02 20.11L21.75 30.63L22.92 31.22Z" id="a9qIXKw2p"></path></defs><g><g><g><use xlink:href="#b1NKLhmNqr" opacity="1" fill="#3bcd77" fill-opacity="1"></use><g><use xlink:href="#b1NKLhmNqr" opacity="1" fill-opacity="0" stroke="#000000" stroke-width="1" stroke-opacity="0"></use></g></g><g><use xlink:href="#b1h0XcbBRp" opacity="1" fill="#000000" fill-opacity="1"></use><g><use xlink:href="#b1h0XcbBRp" opacity="1" fill-opacity="0" stroke="#000000" stroke-width="1" stroke-opacity="0"></use></g></g><g><use xlink:href="#a9qIXKw2p" opacity="1" fill="#000000" fill-opacity="1"></use><g><use xlink:href="#a9qIXKw2p" opacity="1" fill-opacity="0" stroke="#000000" stroke-width="1" stroke-opacity="0"></use></g></g></g></g></svg>